<svg preserveAspectRatio="none" width="100%" height="100%" overflow="visible" style="display: block;" viewBox="0 0 28 28" fill="none" xmlns="http://www.w3.org/2000/svg">
<g id="Group">
<path id="Vector" d="M13.6818 19.1651C15.1338 19.1651 16.5262 18.5883 17.5529 17.5616C18.5796 16.5349 19.1563 15.1425 19.1563 13.6906C19.1563 12.2386 18.5796 10.8462 17.5529 9.8195C16.5262 8.79284 15.1338 8.21606 13.6818 8.21606C12.2299 8.21606 10.8374 8.79284 9.81078 9.8195C8.78411 10.8462 8.20734 12.2386 8.20734 13.6906C8.20734 15.1425 8.78411 16.5349 9.81078 17.5616C10.8374 18.5883 12.2299 19.1651 13.6818 19.1651Z" stroke="var(--stroke-0, #C49EC9)" stroke-width="2.73725" stroke-linecap="round" stroke-linejoin="round"/>
<path id="Vector_2" d="M1.36862 19.1607V8.21175C1.36862 6.39684 2.08959 4.65626 3.37293 3.37293C4.65626 2.08959 6.39684 1.36862 8.21175 1.36862H19.1607C20.9757 1.36862 22.7162 2.08959 23.9996 3.37293C25.2829 4.65626 26.0039 6.39684 26.0039 8.21175V19.1607C26.0039 20.9757 25.2829 22.7162 23.9996 23.9996C22.7162 25.2829 20.9757 26.0039 19.1607 26.0039H8.21175C6.39684 26.0039 4.65626 25.2829 3.37293 23.9996C2.08959 22.7162 1.36862 20.9757 1.36862 19.1607Z" stroke="var(--stroke-0, #C49EC9)" stroke-width="2.73725"/>
<path id="Vector_3" d="M21.2112 6.17565L21.2218 6.16392" stroke="var(--stroke-0, #C49EC9)" stroke-width="2.73725" stroke-linecap="round" stroke-linejoin="round"/>
</g>
</svg>
