<svg preserveAspectRatio="none" width="100%" height="100%" overflow="visible" style="display: block;" viewBox="0 0 26 26" fill="none" xmlns="http://www.w3.org/2000/svg">
<g id="entypo-social:linkedin">
<path id="Vector" d="M6.50172 3.90456C6.50172 5.28526 5.57866 6.47354 3.90024 6.47354C2.32063 6.47354 1.30136 5.35286 1.30136 3.97217C1.30136 2.55506 2.28943 1.30438 3.90154 1.30438C5.51365 1.30438 6.47052 2.48746 6.50172 3.90456ZM1.30136 24.706V7.80484H6.50172V24.706H1.30136ZM9.10191 13.5824C9.10191 11.5738 9.0356 9.89538 8.9693 8.44578H13.6418L13.8732 10.6858H13.9721C14.6299 9.63147 16.242 8.08566 18.941 8.08566C22.2328 8.08566 24.703 10.2893 24.703 15.0307V24.706H19.5026V15.7861C19.5026 13.7138 18.7135 12.1328 16.9025 12.1328C15.5218 12.1328 14.8301 13.2509 14.4674 14.1727C14.3348 14.5029 14.3023 14.9631 14.3023 15.4247V24.706H9.10191V13.5824Z" fill="var(--fill-0, #C49EC9)"/>
</g>
</svg>
