<svg width="70" height="66" viewBox="0 0 70 66" fill="none" xmlns="http://www.w3.org/2000/svg">
<g clip-path="url(#clip0_28494_2053)">
<path d="M41.4276 62.8668C41.4333 63.1161 41.6306 63.2617 41.7104 63.5023C42.0173 64.4231 41.4035 65.6301 40.4087 65.7688C39.1744 65.9406 38.8232 65.3031 38.2123 64.4114C35.0625 59.8124 32.4841 54.7835 29.3199 50.1873C29.2554 50.0942 29.2333 49.9787 29.2015 49.873C29.062 49.7692 26.6193 50.9063 25.8612 50.7705C24.5922 50.5434 24.3507 48.6223 25.486 48.0033C25.992 47.7277 27.085 47.5599 27.4785 47.296C27.6516 47.1795 27.3274 46.8836 27.2418 46.7846L2.75313 55.3492C1.34658 55.9294 0.0237258 54.6826 0.356604 53.2233C0.689482 51.764 2.73774 51.9096 3.74407 51.3031C3.85952 51.2333 3.92109 51.1654 3.95669 51.0324L12.372 23.1237L12.3248 22.8977C8.52558 17.0509 4.89856 11.0944 1.23883 5.15831C0.838603 4.29672 1.38602 3.00724 2.34233 2.82968C3.51991 2.61137 4.07214 3.09941 4.71673 3.98041C6.16272 5.95684 7.46056 8.53193 8.77476 10.6578C11.9708 15.8293 15.2534 20.9455 18.4754 26.1015C21.9359 31.6398 25.3215 37.2265 28.8225 42.7386L49.7014 36.331L41.3804 23.9572L40.022 27.5462L40.0316 27.8334C41.4478 29.9088 42.9265 31.7436 44.7939 33.4192C45.4173 33.9791 46.2187 34.4875 46.8171 35.0658C46.9027 35.1482 47.2991 35.4937 47.2 35.6004C44.206 36.3096 41.2977 37.2576 38.4211 38.3423C37.4523 38.7072 35.4993 39.758 34.5487 39.7813C33.7714 39.8007 30.7851 38.4297 29.9606 37.996C28.2481 37.0956 26.7502 35.8585 25.2984 34.5962C20.7689 27.3939 16.0346 20.2877 11.6591 12.9854C9.84843 9.96404 8.15037 6.83978 6.79288 3.5826L27.413 2.42217C27.9518 0.888177 29.6325 0.124578 30.788 1.55378C32.3369 3.46908 33.5328 6.16351 35.1953 8.07299L53.3535 35.6528C57.4307 34.8649 61.5118 34.0868 65.5997 33.3465C66.6859 33.1495 68.2695 32.3626 69.0228 33.5318C69.5865 34.407 69.2556 35.3617 68.433 35.9128C64.3288 37.2819 60.1659 38.5442 56.1464 40.116C58.8931 44.392 61.6513 48.6611 64.4192 52.9235C65.5343 54.6409 66.7936 56.301 67.7653 58.0872C68.052 59.4495 67.0486 60.3538 65.7257 60.1432C64.7646 59.9909 63.9574 57.9844 63.4091 57.2363L63.2368 57.1568L41.4266 62.8668H41.4276ZM37.2916 23.9591C37.4263 23.9504 37.4407 23.8126 37.486 23.7205C37.8727 22.9472 38.3201 21.9196 38.6539 21.1143C38.7742 20.8242 38.9849 20.4739 38.8858 20.1732C35.7109 15.3742 32.7881 10.3987 29.3064 5.81518C31.2527 10.6355 32.8045 15.6624 35.2203 20.2741C35.8754 21.5238 36.6384 22.7104 37.2916 23.9591ZM14.9696 26.8699L7.75592 49.8642L25.4571 43.8476L14.9696 26.869V26.8699ZM52.9552 41.3434C52.8484 41.2793 52.6964 41.3444 52.5848 41.3705C50.7991 41.7819 48.1977 42.8279 46.3803 43.4595C41.7104 45.0838 37.1579 47.0165 32.4803 48.6048L39.8103 60.3247L61.5349 54.7146L52.9552 41.3424V41.3434ZM43.1593 41.5219C40.3866 42.3146 37.7159 43.4314 34.9586 44.2707C34.7662 44.3289 34.5911 44.2299 34.4795 44.2639C33.1643 44.6588 31.8684 45.1391 30.5581 45.5466C30.6783 45.6834 30.7582 45.99 30.9717 45.9686L42.0558 42.008L43.1603 41.5219H43.1593Z" fill="#151515" fill-opacity="0.2"/>
</g>
<defs>
<clipPath id="clip0_28494_2053">
<rect width="69" height="65" fill="white" transform="translate(0.304688 0.796875)"/>
</clipPath>
</defs>
</svg>
