<svg width="24" height="25" viewBox="0 0 24 25" fill="none" xmlns="http://www.w3.org/2000/svg">
<path d="M12 2.75284C15.204 2.75284 15.584 2.76484 16.85 2.82284C20.102 2.97084 21.621 4.51384 21.769 7.74184C21.827 9.00684 21.838 9.38684 21.838 12.5908C21.838 15.7958 21.826 16.1748 21.769 17.4398C21.62 20.6648 20.105 22.2108 16.85 22.3588C15.584 22.4168 15.206 22.4288 12 22.4288C8.796 22.4288 8.416 22.4168 7.151 22.3588C3.891 22.2098 2.38 20.6598 2.232 17.4388C2.174 16.1738 2.162 15.7948 2.162 12.5898C2.162 9.38584 2.175 9.00684 2.232 7.74084C2.381 4.51384 3.896 2.96984 7.151 2.82184C8.417 2.76484 8.796 2.75284 12 2.75284ZM12 0.589844C8.741 0.589844 8.333 0.603844 7.053 0.661844C2.695 0.861844 0.273 3.27984 0.073 7.64184C0.014 8.92284 0 9.33084 0 12.5898C0 15.8488 0.014 16.2578 0.072 17.5378C0.272 21.8958 2.69 24.3178 7.052 24.5178C8.333 24.5758 8.741 24.5898 12 24.5898C15.259 24.5898 15.668 24.5758 16.948 24.5178C21.302 24.3178 23.73 21.8998 23.927 17.5378C23.986 16.2578 24 15.8488 24 12.5898C24 9.33084 23.986 8.92284 23.928 7.64284C23.732 3.28884 21.311 0.862844 16.949 0.662844C15.668 0.603844 15.259 0.589844 12 0.589844ZM12 6.42784C8.597 6.42784 5.838 9.18684 5.838 12.5898C5.838 15.9928 8.597 18.7528 12 18.7528C15.403 18.7528 18.162 15.9938 18.162 12.5898C18.162 9.18684 15.403 6.42784 12 6.42784ZM12 16.5898C9.791 16.5898 8 14.7998 8 12.5898C8 10.3808 9.791 8.58984 12 8.58984C14.209 8.58984 16 10.3808 16 12.5898C16 14.7998 14.209 16.5898 12 16.5898ZM18.406 4.74484C17.61 4.74484 16.965 5.38984 16.965 6.18484C16.965 6.97984 17.61 7.62484 18.406 7.62484C19.201 7.62484 19.845 6.97984 19.845 6.18484C19.845 5.38984 19.201 4.74484 18.406 4.74484Z" fill="#151515"/>
</svg>
