<svg width="65" height="66" viewBox="0 0 65 66" fill="none" xmlns="http://www.w3.org/2000/svg">
<g clip-path="url(#clip0_28494_2092)">
<path d="M50.645 19.2902C56.328 25.3026 60.1053 32.735 62.0307 40.7877C62.2213 41.5842 62.7008 43.3232 62.6873 44.0523C62.6811 44.4138 62.301 45.2527 62.1498 45.6339C60.3425 50.1942 57.3161 54.307 53.7635 57.6514C53.7294 56.7275 53.98 55.7405 54.0276 54.8083C54.3933 47.609 52.154 39.8069 48.3695 33.7355C44.2287 27.0913 37.6197 21.4259 29.9937 19.3296C30.8927 16.7175 32.5892 14.1333 34.4918 12.124C34.8522 11.7439 35.7761 10.7962 36.1572 10.5269C36.6875 10.152 37.6259 10.6212 38.2308 10.8356C42.877 12.4793 47.2903 15.7418 50.646 19.2913L50.645 19.2902Z" fill="#151515" fill-opacity="0.2"/>
<path d="M46.7724 4.51639C45.4487 4.36621 44.0008 4.71214 42.7103 5.06428C38.1883 6.29887 34.1044 9.32629 31.3587 13.0808C27.2169 18.7441 25.5525 26.047 26.4204 33.004C22.7477 35.6119 18.3376 37.1365 13.8363 37.4535C13.6209 36.0283 13.3278 34.5938 13.2149 33.1542C12.3739 22.3422 17.3702 10.1362 25.6415 3.11712C27.337 1.6785 28.0258 1.13475 30.351 0.99078C35.4384 0.67592 40.7527 1.73443 45.3907 3.77377C45.8319 3.96745 46.4347 4.21085 46.7713 4.51535L46.7724 4.51639Z" fill="#151515" fill-opacity="0.2"/>
<path d="M39.5225 65.0027C41.2293 62.8825 42.3728 60.3429 42.9083 57.6697C44.1211 51.6066 42.7954 45.9971 39.1931 41.0464C36.4433 37.268 32.5634 34.3255 28.1771 32.6943L27.9182 29.7425C27.9389 26.7047 28.4216 23.785 29.2688 20.8818C39.0243 23.7197 46.7705 32.0345 50.1635 41.4669C51.9305 46.3783 52.7321 52.4031 51.8165 57.5682C51.7347 58.0322 51.5203 59.1891 51.3152 59.5527C51.0946 59.9442 49.0698 61.1663 48.5633 61.4615C45.7917 63.0804 42.6752 64.3595 39.5214 65.0027H39.5225Z" fill="#151515" fill-opacity="0.2"/>
<path d="M0.47464 31.9641C0.488105 31.9765 0.523319 32.2002 0.59582 32.3069C1.65847 33.8729 2.79881 35.4027 4.31718 36.5637C10.573 41.3498 20.4672 38.9583 26.5666 35.0091C26.8545 34.8227 27.2595 34.34 27.5578 34.3369C27.8043 34.3349 29.3537 35.0578 29.6852 35.2235C31.2709 36.0148 33.1238 37.2597 34.4485 38.4353C34.9125 38.8475 36.3356 40.1701 36.6276 40.6072C36.6929 40.7046 36.7612 40.775 36.7157 40.9045C31.6313 45.8697 24.7955 49.3756 17.6148 49.8811C13.5786 50.1649 7.82828 49.4005 4.31511 47.2327C2.99249 46.4166 2.86406 45.7371 2.33687 44.3431C0.751179 40.1432 0.515034 36.9583 0.377282 32.5285C0.374175 32.4281 0.162887 31.6679 0.47464 31.9641Z" fill="#151515" fill-opacity="0.2"/>
<path d="M4.82663 49.4678C6.01875 50.0271 7.33515 50.4766 8.61427 50.8059C17.97 53.2202 27.7679 50.5097 35.221 44.5968C36.1418 43.8666 36.9476 42.9945 37.9139 42.3213C40.0237 45.1944 41.4126 48.7241 41.4913 52.3171C41.4602 52.4786 40.2308 53.5113 39.9853 53.7112C33.8777 58.7178 25.046 61.824 17.1 61.274C15.3517 61.1528 14.5438 60.3729 13.2253 59.3486C10.3709 57.1311 7.81366 54.3253 5.85924 51.2824C5.72771 51.0773 4.74688 49.5517 4.82663 49.4678Z" fill="#151515" fill-opacity="0.2"/>
<path d="M23.8829 2.13623C23.7078 2.36513 23.3826 2.50598 23.1568 2.70381C22.0589 3.67014 20.9145 5.02797 20.0092 6.18488C13.247 14.8394 9.76283 26.4219 12.0746 37.3488C6.61837 37.4979 2.92912 33.44 0.622559 28.9646C2.11607 16.3857 11.5536 5.24651 23.8829 2.13623Z" fill="#151515" fill-opacity="0.2"/>
<path d="M63.861 39.9394L61.9998 34.1901C58.1614 23.8877 50.6451 14.0535 40.3179 9.6786C39.8726 9.4901 38.7695 9.21459 38.4857 9.02506C38.348 8.93391 38.377 8.91009 38.4889 8.81791C38.9197 8.46162 40.4008 7.81119 40.9746 7.57504C43.334 6.60664 46.1139 6.03906 48.6721 6.11053C49.7782 6.1416 50.1646 6.5445 51.0108 7.168C55.3567 10.3674 59.3359 15.3109 61.5689 20.2243C64.3789 26.4066 65.078 33.2734 63.861 39.9394Z" fill="#151515" fill-opacity="0.2"/>
<path d="M19.4294 63.2418C19.6242 62.9726 20.2487 63.1621 20.6195 63.1383C28.23 62.6359 35.6178 59.5195 41.4893 54.751C41.2812 58.1772 39.7038 62.869 36.9881 65.1113C36.2351 65.7328 35.6748 65.741 34.7053 65.8322C31.216 66.1595 27.2274 65.6986 23.8603 64.7685C22.345 64.3501 20.9136 63.74 19.4294 63.2429V63.2418Z" fill="#151515" fill-opacity="0.2"/>
</g>
<defs>
<clipPath id="clip0_28494_2092">
<rect width="64.13" height="65" fill="white" transform="translate(0.304688 0.937012)"/>
</clipPath>
</defs>
</svg>
