<svg preserveAspectRatio="none" width="100%" height="100%" overflow="visible" style="display: block;" viewBox="0 0 191 182" fill="none" xmlns="http://www.w3.org/2000/svg">
<path id="Vector 20" d="M58.5448 181.776L74.669 139.034C59.5784 134.904 26.6687 126.026 15.754 123.548C2.11048 120.451 -0.990305 116.734 0.250011 103.106C1.49033 89.4778 7.07175 60.9827 10.7927 34.346C14.5136 7.70934 20.0951 0.275315 31.8781 0.275315C43.6611 0.275315 141.026 -0.344143 164.592 0.275315C188.158 0.894772 191.879 12.045 190.018 29.3898C188.158 46.7346 178.235 111.158 172.034 132.839C165.832 154.52 149.708 152.662 144.747 152.662C140.778 152.662 125.729 149.358 118.7 147.706L58.5448 181.776Z" fill="var(--fill-0, #C9F678)"/>
</svg>
