<svg width="21" height="21" viewBox="0 0 21 21" fill="none" xmlns="http://www.w3.org/2000/svg">
<path d="M15.2607 18.7599C14.9109 18.7636 14.564 18.6964 14.2409 18.5623C13.9178 18.4283 13.6252 18.2302 13.3807 17.9799C12.5283 17.1971 11.4131 16.7627 10.2557 16.7627C9.09838 16.7627 7.98317 17.1971 7.13074 17.9799C6.8853 18.2275 6.59324 18.4241 6.27142 18.5582C5.9496 18.6924 5.6044 18.7614 5.25574 18.7614C4.90709 18.7614 4.56189 18.6924 4.24007 18.5582C3.91825 18.4241 3.62619 18.2275 3.38074 17.9799C2.5354 17.1886 1.41862 16.7519 0.260742 16.7599V18.7599C0.608946 18.757 0.954136 18.8246 1.27552 18.9587C1.5969 19.0927 1.88781 19.2904 2.13074 19.5399C2.9821 20.3249 4.09771 20.7607 5.25574 20.7607C6.41377 20.7607 7.52938 20.3249 8.38074 19.5399C8.62619 19.2923 8.91825 19.0957 9.24007 18.9616C9.56189 18.8275 9.90709 18.7584 10.2557 18.7584C10.6044 18.7584 10.9496 18.8275 11.2714 18.9616C11.5932 19.0957 11.8853 19.2923 12.1307 19.5399C12.9832 20.3228 14.0984 20.7572 15.2557 20.7572C16.4131 20.7572 17.5283 20.3228 18.3807 19.5399C18.6252 19.2897 18.9178 19.0916 19.2409 18.9575C19.564 18.8234 19.9109 18.7562 20.2607 18.7599V16.7599C19.0996 16.7504 17.9792 17.1871 17.1307 17.9799C16.8875 18.2289 16.5965 18.4263 16.2752 18.5604C15.9539 18.6944 15.6089 18.7623 15.2607 18.7599Z" fill="#F4F3ED"/>
<path d="M15.2607 14.7598C14.9109 14.7635 14.564 14.6962 14.2409 14.5622C13.9178 14.4281 13.6252 14.23 13.3807 13.9798C12.5283 13.1969 11.4131 12.7625 10.2557 12.7625C9.09838 12.7625 7.98317 13.1969 7.13074 13.9798C6.8853 14.2274 6.59324 14.4239 6.27142 14.5581C5.9496 14.6922 5.6044 14.7613 5.25574 14.7613C4.90709 14.7613 4.56189 14.6922 4.24007 14.5581C3.91825 14.4239 3.62619 14.2274 3.38074 13.9798C2.5354 13.1885 1.41862 12.7518 0.260742 12.7598V14.7598C0.608946 14.7569 0.954136 14.8245 1.27552 14.9585C1.5969 15.0926 1.88781 15.2903 2.13074 15.5398C2.9821 16.3248 4.09771 16.7606 5.25574 16.7606C6.41377 16.7606 7.52938 16.3248 8.38074 15.5398C8.62619 15.2921 8.91825 15.0956 9.24007 14.9615C9.56189 14.8273 9.90709 14.7583 10.2557 14.7583C10.6044 14.7583 10.9496 14.8273 11.2714 14.9615C11.5932 15.0956 11.8853 15.2921 12.1307 15.5398C12.9832 16.3226 14.0984 16.757 15.2557 16.757C16.4131 16.757 17.5283 16.3226 18.3807 15.5398C18.6252 15.2895 18.9178 15.0914 19.2409 14.9573C19.564 14.8233 19.9109 14.7561 20.2607 14.7598V12.7598C19.0996 12.7502 17.9792 13.187 17.1307 13.9798C16.8875 14.2288 16.5965 14.4262 16.2752 14.5602C15.9539 14.6942 15.6089 14.7621 15.2607 14.7598ZM3.26074 11.7598H17.2607V10.7598C17.2607 8.90325 16.5232 7.12277 15.2105 5.81002C13.8977 4.49726 12.1173 3.75977 10.2607 3.75977C8.40423 3.75977 6.62375 4.49726 5.31099 5.81002C3.99824 7.12277 3.26074 8.90325 3.26074 10.7598V11.7598ZM9.26074 0.759766H11.2607V2.75977H9.26074V0.759766ZM2.49274 4.39977L3.90674 2.98577L5.32074 4.39977L3.90674 5.81377L2.49274 4.39977ZM0.260742 9.75977H2.26074V11.7598H0.260742V9.75977ZM18.2607 9.75977H20.2607V11.7598H18.2607V9.75977ZM15.2067 4.40577L16.6217 2.99077L18.0357 4.40577L16.6207 5.81977L15.2067 4.40577Z" fill="currentColor"/>
</svg>
