<svg width="25" height="25" viewBox="0 0 25 25" fill="none" xmlns="http://www.w3.org/2000/svg">
<path d="M18.2186 12.8254C18.2467 12.5723 18.2607 12.3566 18.2607 12.1785C18.2607 11.2598 18.1061 11.2551 17.5107 11.2551H13.9717C14.3139 10.6926 14.5107 10.1113 14.5107 9.5207C14.5107 7.74414 11.8248 6.87695 11.8248 5.3957C11.8248 4.84727 12.0639 4.39727 12.2607 3.75977C11.0186 4.08789 10.0389 5.33008 10.0389 6.64727C10.0389 8.91133 12.6779 8.93008 12.6779 10.6223C12.6779 10.8332 12.6123 11.0207 12.5795 11.2551H9.95918C9.99668 11.1145 10.0201 10.9645 10.0201 10.8191C10.0201 9.75039 8.1873 9.23008 8.1873 8.34414C8.1873 8.01602 8.23418 7.74414 8.33731 7.35977C7.73262 7.59883 7.01074 8.29727 7.01074 9.08477C7.01074 10.3363 8.50605 10.4582 8.73574 11.2551H4.01074C3.41543 11.2551 3.26074 11.2598 3.26074 12.1785C3.26074 13.0973 3.62168 15.052 4.5873 17.3816C5.55293 19.7113 6.66855 20.7379 7.45605 21.4223L7.46074 21.4129C7.6998 21.6285 8.01387 21.7551 8.36074 21.7551H13.1607C13.5076 21.7551 13.8217 21.6285 14.0607 21.4129L14.0654 21.4223C14.4873 21.0566 15.0029 20.5879 15.5373 19.8801C15.7576 19.9738 15.9967 20.0535 16.2592 20.1145C16.6529 20.2082 17.0467 20.2551 17.4217 20.2551C18.5467 20.2551 19.5592 19.8238 20.2717 19.0457C20.8998 18.3613 21.2607 17.4332 21.2607 16.5051C21.2607 14.6816 19.9482 13.1582 18.2186 12.8254ZM17.4217 18.7691C17.0186 18.7691 16.6904 18.7129 16.3857 18.5723C16.5732 18.1973 16.7561 17.827 16.9342 17.3957C17.4076 16.252 17.7357 15.1926 17.9467 14.3113C18.9779 14.5129 19.7607 15.427 19.7607 16.5191C19.7607 17.5832 18.9545 18.7691 17.4217 18.7691Z" fill="currentColor"/>
</svg>
