<svg width="24" height="25" viewBox="0 0 24 25" fill="currentColor" xmlns="http://www.w3.org/2000/svg">
<path d="M12 3.08292C15.204 3.08292 15.584 3.09492 16.85 3.15292C20.102 3.30092 21.621 4.84392 21.769 8.07192C21.827 9.33692 21.838 9.71692 21.838 12.9209C21.838 16.1259 21.826 16.5049 21.769 17.7699C21.62 20.9949 20.105 22.5409 16.85 22.6889C15.584 22.7469 15.206 22.7589 12 22.7589C8.796 22.7589 8.416 22.7469 7.151 22.6889C3.891 22.5399 2.38 20.9899 2.232 17.7689C2.174 16.5039 2.162 16.1249 2.162 12.9199C2.162 9.71592 2.175 9.33692 2.232 8.07092C2.381 4.84392 3.896 3.29992 7.151 3.15192C8.417 3.09492 8.796 3.08292 12 3.08292ZM12 0.919922C8.741 0.919922 8.333 0.933922 7.053 0.991922C2.695 1.19192 0.273 3.60992 0.073 7.97192C0.014 9.25292 0 9.66092 0 12.9199C0 16.1789 0.014 16.5879 0.072 17.8679C0.272 22.2259 2.69 24.6479 7.052 24.8479C8.333 24.9059 8.741 24.9199 12 24.9199C15.259 24.9199 15.668 24.9059 16.948 24.8479C21.302 24.6479 23.73 22.2299 23.927 17.8679C23.986 16.5879 24 16.1789 24 12.9199C24 9.66092 23.986 9.25292 23.928 7.97292C23.732 3.61892 21.311 1.19292 16.949 0.992922C15.668 0.933922 15.259 0.919922 12 0.919922ZM12 6.75792C8.597 6.75792 5.838 9.51692 5.838 12.9199C5.838 16.3229 8.597 19.0829 12 19.0829C15.403 19.0829 18.162 16.3239 18.162 12.9199C18.162 9.51692 15.403 6.75792 12 6.75792ZM12 16.9199C9.791 16.9199 8 15.1299 8 12.9199C8 10.7109 9.791 8.91992 12 8.91992C14.209 8.91992 16 10.7109 16 12.9199C16 15.1299 14.209 16.9199 12 16.9199ZM18.406 5.07492C17.61 5.07492 16.965 5.71992 16.965 6.51492C16.965 7.30992 17.61 7.95492 18.406 7.95492C19.201 7.95492 19.845 7.30992 19.845 6.51492C19.845 5.71992 19.201 5.07492 18.406 5.07492Z" fill="currentColor"/>
</svg>
