<svg fill="currentColor" width="24px" height="24px" viewBox="0 0 720 720" xmlns="http://www.w3.org/2000/svg"><g id="SVGRepo_bgCarrier" stroke-width="0"/><g id="SVGRepo_tracerCarrier" stroke-linecap="round" stroke-linejoin="round"/><g id="SVGRepo_iconCarrier"><path d="M438 225.495v28.108c27.117 -16.847 58.423 -26.666 105.991 -26.666 154.82 0 174.639 115.721 174.639 216.531v274.955L539.622 720v-262.973c0 -44.144 -15.811 -52.523 -45.045 -52.523 -27.793 0 -45.045 8.784 -45.045 52.523V720l-181.351 -1.576V225.495H438Zm-257.82 -0.297v494.594H0V225.199zm-45.045 45.045H45.045v404.504h90.09V270.244Zm257.82 0.297H313.225v403.244l91.261 0.811v-217.567c0 -84.91 56.441 -97.567 90.09 -97.567 41.081 0 90.09 16.937 90.09 97.567v217.567l88.919 -0.811v-230.315c0 -125 -35.09 -171.487 -129.594 -171.487 -56.802 0 -81.396 16.847 -105.496 37.117l-6.261 5.315H392.955zM90.09 0c49.685 0 90.09 40.406 90.09 90.09S139.775 180.18 90.09 180.18C40.406 180.18 0 139.775 0 90.09 0 40.406 40.406 0 90.09 0m0 45.045c-24.82 0 -45.045 20.225 -45.045 45.045s20.225 45.045 45.045 45.045 45.045 -20.225 45.045 -45.045 -20.225 -45.045 -45.045 -45.045" fill-rule="evenodd"/></g></svg>