<svg width="25" height="25" viewBox="0 0 25 25" fill="none" xmlns="http://www.w3.org/2000/svg">
<g clip-path="url(#clip0_30317_258225)">
<path d="M10.2607 8.75992L7.01074 12.0099C7.32074 12.1299 7.57074 12.2799 7.78074 12.3999C8.15074 12.6299 8.37074 12.7599 8.93074 12.7599C9.49074 12.7599 9.71074 12.6299 10.0807 12.3999C10.5407 12.1299 11.1607 11.7599 12.2707 11.7599C13.3807 11.7599 14.0007 12.1299 14.4507 12.3999C14.8207 12.6199 15.0507 12.7599 15.6007 12.7599C16.1507 12.7599 16.3807 12.6299 16.7507 12.3999C16.8707 12.3299 17.0107 12.2499 17.1607 12.1699L10.7407 5.75992C9.19074 4.20992 7.76074 3.74992 5.26074 3.75992V6.25992C7.08074 6.24992 8.15074 6.64992 9.26074 7.75992L10.2607 8.75992ZM5.61074 16.2599C6.16074 16.2599 6.39074 16.3999 6.76074 16.6199C7.21074 16.8899 7.83074 17.2599 8.94074 17.2599C10.0507 17.2599 10.6707 16.8899 11.1207 16.6199C11.4907 16.3899 11.7107 16.2599 12.2707 16.2599C12.8207 16.2599 13.0507 16.3999 13.4207 16.6199C13.8707 16.8899 14.4907 17.2599 15.6007 17.2599C16.7107 17.2599 17.3307 16.8899 17.7807 16.6199C18.1507 16.3899 18.3707 16.2599 18.9307 16.2599C19.4807 16.2599 19.7107 16.3999 20.0807 16.6199C20.5307 16.8899 21.1407 17.2499 22.2407 17.2599V15.2599C21.6907 15.2599 21.4607 15.1199 21.0907 14.8999C20.6407 14.6299 20.0207 14.2599 18.9107 14.2599C17.8007 14.2599 17.1807 14.6299 16.7307 14.8999C16.3607 15.1299 16.1307 15.2599 15.5807 15.2599C15.0307 15.2599 14.8007 15.1199 14.4307 14.8999C13.9807 14.6299 13.3607 14.2599 12.2507 14.2599C11.1407 14.2599 10.5207 14.6299 10.0707 14.8999C9.70074 15.1299 9.48074 15.2599 8.92074 15.2599C8.37074 15.2599 8.14074 15.1199 7.77074 14.8999C7.32074 14.6299 6.70074 14.2599 5.59074 14.2599C4.48074 14.2599 3.86074 14.6299 3.41074 14.8999C3.04074 15.1299 2.82074 15.2599 2.26074 15.2599V17.2599C3.37074 17.2599 3.99074 16.8899 4.46074 16.6199C4.83074 16.3899 5.06074 16.2599 5.61074 16.2599ZM18.9307 18.7599C17.8207 18.7599 17.2007 19.1299 16.7507 19.3999C16.3807 19.6299 16.1507 19.7599 15.6007 19.7599C15.0507 19.7599 14.8207 19.6199 14.4507 19.3999C14.0007 19.1299 13.3807 18.7599 12.2707 18.7599C11.1607 18.7599 10.5407 19.1299 10.0807 19.3999C9.71074 19.6299 9.49074 19.7599 8.93074 19.7599C8.37074 19.7599 8.15074 19.6299 7.78074 19.3999C7.33074 19.1299 6.71074 18.7599 5.60074 18.7599C4.49074 18.7599 3.87074 19.1299 3.41074 19.3999C3.04074 19.6299 2.82074 19.7599 2.26074 19.7599V21.7599C3.37074 21.7599 3.99074 21.3899 4.45074 21.1199C4.82074 20.8899 5.05074 20.7599 5.60074 20.7599C6.15074 20.7599 6.38074 20.8899 6.75074 21.1199C7.20074 21.3899 7.82074 21.7599 8.93074 21.7599C10.0407 21.7599 10.6607 21.3899 11.1207 21.1199C11.4907 20.8899 11.7107 20.7599 12.2707 20.7599C12.8207 20.7599 13.0507 20.8999 13.4207 21.1199C13.8707 21.3899 14.4907 21.7599 15.6007 21.7599C16.7107 21.7599 17.3207 21.3899 17.7807 21.1199C18.1507 20.8899 18.3707 20.7599 18.9307 20.7599C19.4807 20.7599 19.7107 20.8999 20.0807 21.1199C20.5307 21.3899 21.1507 21.7599 22.2607 21.7599V19.7599C21.7007 19.7599 21.4807 19.6299 21.1107 19.3999C20.6607 19.1299 20.0407 18.7599 18.9307 18.7599Z" fill="currentColor"/>
<path d="M16.7607 8.75977C18.1415 8.75977 19.2607 7.64048 19.2607 6.25977C19.2607 4.87905 18.1415 3.75977 16.7607 3.75977C15.38 3.75977 14.2607 4.87905 14.2607 6.25977C14.2607 7.64048 15.38 8.75977 16.7607 8.75977Z" fill="currentColor"/>
</g>
<defs>
<clipPath id="clip0_30317_258225">
<rect x="0.260742" y="0.759766" width="24" height="24" rx="12" fill="white"/>
</clipPath>
</defs>
</svg>
