<svg preserveAspectRatio="none" width="100%" height="100%" overflow="visible" style="display: block;" viewBox="0 0 225 209" fill="none" xmlns="http://www.w3.org/2000/svg">
<path id="Vector 19" d="M72.3824 154.595C91.6191 171.881 131.071 206.845 134.983 208.41L117.377 154.595C126.832 156.552 149.264 160.466 163.349 160.466C180.956 160.466 196.606 154.595 201.497 133.07C206.388 111.544 217.147 64.5778 223.016 40.1165C228.885 15.6552 215.191 0 196.606 0C178.021 0 51.8414 3.91381 30.3223 4.89226C8.80326 5.87071 0 14.6768 0 27.3967V112.522C0 141.876 7.89535 144.811 22.4972 148.725C34.1787 151.856 60.6213 153.943 72.3824 154.595Z" fill="var(--fill-0, #C9F678)"/>
</svg>
