<svg width="25" height="25" viewBox="0 0 25 25" fill="none" xmlns="http://www.w3.org/2000/svg">
<path d="M9.8124 1.80991C12.6761 2.20229 13.8711 4.56318 13.9121 7.2161C13.9232 7.36448 13.7865 8.23971 14.0082 7.6267C14.5335 6.12346 15.4378 4.29645 17.1382 3.95425C19.0195 3.57989 20.9612 4.62343 21.4501 6.59581C21.561 6.92193 21.6221 7.2577 21.5467 7.59669C21.5139 7.95518 21.1886 7.79051 20.9801 7.70046C20.256 7.42301 19.5556 7.0911 18.8308 6.82223C18.5596 6.67879 18.5304 6.31664 18.3498 6.08101C18.2448 5.89897 18.1035 5.90068 18.0417 6.10888C17.9625 6.32779 17.8396 6.54542 17.7464 6.75683C17.7059 6.87347 17.6097 6.9393 17.487 6.93458C16.4696 7.04543 15.4853 7.37799 14.7162 8.07247C14.6265 8.17002 14.156 8.62265 14.5569 8.52895C17.5498 7.87392 20.2538 9.41212 20.5185 12.6021C20.56 13.82 20.5091 15.1262 19.8418 16.1886C19.538 16.5533 19.5103 15.689 19.414 15.528C19.2509 14.9011 19.001 14.3228 18.7457 13.7357C18.6632 13.5074 18.4716 13.299 18.5346 13.0434C18.5374 12.8241 18.82 12.3461 18.4633 12.3073C18.2414 12.2366 17.945 12.2674 17.7862 12.0713C17.1391 11.2166 16.4079 10.3922 15.3944 10.0519C15.3613 10.0579 15.3903 10.0993 15.4295 10.1463C16.9521 11.7104 17.1089 14.0709 16.3849 16.081C16.1637 16.7006 15.9341 17.2036 15.8313 16.167C15.7968 15.6753 15.757 15.1843 15.6335 14.7038C15.556 14.4283 15.4499 14.1723 15.3865 13.8905C15.356 13.7968 15.3049 13.7044 15.3358 13.6037C15.6032 12.7692 15.6456 13.1212 14.9796 12.8749C14.5993 12.1718 14.2273 11.4598 13.7446 10.8167C13.7024 10.7663 13.6255 10.6437 13.5629 10.6926C13.2661 11.6547 13.1709 12.686 13.0387 13.7042C12.9535 14.5589 12.9842 15.4221 13.1143 16.2607C13.0971 16.4751 13.182 16.6687 13.1952 16.8805C13.2425 17.4163 13.3992 17.9545 13.5591 18.4584C13.9475 18.4584 19.4183 18.4575 21.2572 18.4573C21.2912 18.4697 21.2833 18.5026 21.2985 18.5506C21.3034 18.7067 21.344 19.0602 21.2623 19.1432C20.9725 19.2211 13.9494 18.9826 13.8517 19.2395C14.1014 19.8287 14.3631 20.4333 14.7464 20.9526C14.7935 21.0228 14.8122 21.086 14.9023 21.0712C15.4672 21.0678 17.609 21.0736 17.8109 21.0712C17.8543 21.0766 17.8324 21.1321 17.8388 21.1651C17.8347 21.3124 17.8428 21.6012 17.8379 21.7342C17.6169 21.8009 8.78289 21.7329 7.83727 21.7565C7.7851 21.7503 7.75423 21.7753 7.75444 21.732C7.75785 21.5562 7.7423 21.3403 7.76274 21.1626C7.78723 21.0496 7.81534 21.0738 7.91009 21.071C8.65194 21.0746 11.1275 21.0684 11.4622 21.071C11.5335 21.086 11.4222 20.8624 11.423 20.7985C11.3459 20.2547 11.1509 19.6784 11.0983 19.1432C10.7521 19.1432 3.93938 19.1432 3.63958 19.1432C3.6038 18.9951 3.63638 18.6674 3.62595 18.5219C3.62872 18.4875 3.61892 18.4665 3.63915 18.458C3.68493 18.458 3.88913 18.458 4.20235 18.458C5.72309 18.4243 10.8038 18.5242 11.0259 18.4215C10.9665 18.2148 11.0076 17.9466 10.9656 17.726C10.9386 17.379 10.9867 17.0214 10.9015 16.677C10.9471 16.3239 10.9607 15.9759 10.9377 15.6209C10.9678 15.2482 11.0108 14.8713 11.0538 14.4997C11.271 12.9999 11.6924 11.6823 12.2223 10.3394C12.3471 10.0665 12.3505 10.0247 12.0863 10.223C10.7608 11.059 9.78238 12.3337 8.96835 13.662C8.80035 13.74 8.54015 13.4997 8.40856 13.6187C8.36108 13.8903 8.56293 14.1564 8.55569 14.4268C8.26547 15.1571 7.92457 15.9 7.74465 16.6661C7.67629 16.98 7.52022 17.658 7.15164 17.1372C6.94701 16.8113 6.82947 16.4208 6.73855 16.0664C6.657 15.7986 6.56374 15.5325 6.5763 15.2508C6.59504 15.0529 6.53073 14.8732 6.51519 14.6807C6.51796 14.5031 6.54585 14.3069 6.57098 14.1352C6.78242 11.4327 8.92811 9.52039 11.5488 9.21078C12.7728 9.19106 11.9587 9.07785 11.3889 8.97707C9.85648 8.79332 8.23779 8.93569 6.87163 9.4893C6.71321 9.57271 6.55288 9.53154 6.41405 9.43291C6.12787 9.31756 5.93623 9.04954 5.78378 9.49316C5.64026 9.72151 5.53486 9.98653 5.35898 10.1889C4.86222 10.5266 4.33713 10.8497 3.89807 11.2619C3.72134 11.4237 3.57996 11.6596 3.37256 11.7749C3.12812 11.9017 2.9088 11.6251 2.94543 11.3849C2.968 10.3489 3.28824 9.35272 3.85421 8.49915C5.68668 5.60565 10.1237 5.17833 12.4747 7.63099C12.6124 7.7442 12.7178 7.91316 12.8622 8.00686C12.8871 7.70218 12.7547 7.35054 12.6518 7.06258C12.3141 6.0645 11.5518 5.23493 10.577 4.85135C10.3015 4.69247 10.2934 4.29988 10.1791 4.02844C10.1201 3.85498 10.0026 3.92981 9.90822 4.05309C9.80772 4.16995 9.70147 4.26408 9.58308 4.3597C9.49152 4.43968 9.39634 4.54667 9.26262 4.51108C8.4026 4.3805 7.55067 4.46284 6.70555 4.59663C6.46664 4.617 5.62131 4.92597 5.67029 4.50079C6.33952 2.95809 8.0898 1.61801 9.80921 1.80927L9.8124 1.80991Z" fill="currentColor"/>
<path d="M16.1765 23.043V23.7284H10.1787V23.0751L10.2107 23.043H16.1765Z" fill="currentColor"/>
</svg>
