<svg width="51" height="64" viewBox="0 0 51 64" fill="none" xmlns="http://www.w3.org/2000/svg">
<path d="M43.982 22.9742C43.7675 22.806 42.3734 21.7008 42.231 21.8616C42.2717 23.5009 40.5227 24.3196 39.184 24.8223C33.0863 27.1103 18.2285 27.1491 12.2307 24.5894C11.0307 24.0775 9.5331 23.1922 9.68841 21.6768C0.623217 27.0844 -0.7875 39.674 2.76055 48.8409C9.81599 67.0784 37.7271 68.5606 47.5577 52.0419C52.7144 43.3759 52.3963 29.5259 43.9838 22.9742H43.982Z" fill="#151515" fill-opacity="0.2"/>
<path d="M12.4841 22.6713C17.1322 25.2698 33.998 25.0129 38.9493 22.9245C39.5743 22.6602 40.5838 22.1649 40.5856 21.3979C40.5949 21.2297 40.5412 21.0874 40.4728 20.9377C39.8701 19.6292 33.7465 18.7144 32.247 18.7162L34.7486 8.92843C34.9649 8.59946 35.2423 8.45346 35.5751 8.27604C38.4002 6.76425 42.4364 6.06934 45.3632 4.56865C47.3785 2.86095 45.9031 0.332684 43.3275 0.870496C41.266 1.30111 36.7787 3.28418 34.6044 4.16205C33.5302 4.59637 32.4005 4.96415 31.4206 5.59991L28.0038 18.2634C23.9972 18.452 19.8815 18.3873 15.9323 19.1339C14.3182 19.4389 8.99517 20.7159 12.4822 22.6657L12.4841 22.6713Z" fill="#151515" fill-opacity="0.2"/>
</svg>
