<svg width="47" height="75" viewBox="0 0 47 75" fill="none" xmlns="http://www.w3.org/2000/svg">
<path d="M1.73415 39.166C7.93407 43.8026 16.3468 47.29 22.7535 51.8501L23.5828 52.1809L45.5058 38.9675C45.7437 38.8166 45.9835 38.5231 46.0084 38.242C46.0394 37.8926 43.9734 34.5293 43.6074 33.8968C37.2668 22.9924 30.5416 12.3031 24.228 1.38221C23.9695 0.941904 23.5042 0.869546 23.0285 0.987375L0.964844 38.2647C1.01034 38.7091 1.42188 38.9324 1.73208 39.166H1.73415Z" fill="#151515" fill-opacity="0.2"/>
<path d="M45.5078 43.7842L23.4235 56.7743L1.94089 43.9041L1.19434 43.9764L1.41355 45.2746L22.6004 74.3287C23.7316 76.0631 24.9248 73.6362 25.6631 72.6708C32.6965 63.4657 39.1776 53.7976 46.0559 44.4725L45.5078 43.7842Z" fill="#151515" fill-opacity="0.2"/>
</svg>
