<svg width="60" height="55" viewBox="0 0 60 55" fill="none" xmlns="http://www.w3.org/2000/svg">
<path d="M52.0209 12.2567C59.0766 14.6107 61.9973 22.5963 57.4266 28.78L43.9523 42.769C43.4604 43.9004 45.3373 45.3452 45.8456 46.422C46.6533 48.131 46.8712 50.1315 45.5461 51.6528C43.5947 53.8938 38.7971 52.48 36.1433 52.9646C35.3501 53.1104 34.2137 54.0304 33.337 54.3383C31.5345 54.9742 28.9079 54.9414 27.1181 54.2855C26.2232 53.9576 25.1704 53.063 24.2864 52.9373C21.5708 52.5492 16.8804 53.8227 14.8564 51.835C13.3334 50.341 13.5259 48.2166 14.3772 46.4201C14.8146 45.4982 16.403 44.0553 16.3884 43.1698C16.3812 42.7362 14.3409 40.5808 13.8707 40.0725C10.5671 36.4942 6.05266 32.925 3.16104 29.1408C-1.77087 22.6874 0.797635 14.9131 8.20367 12.2549C9.39626 5.84529 15.7223 1.22847 22.1281 3.66624C25.6151 0.607184 30.6813 -0.00134697 34.918 1.81878C35.6968 2.15402 37.4829 3.56786 37.806 3.64256C38.0257 3.69357 40.0696 3.07046 40.6632 3.02309C46.2195 2.57671 51.0425 6.9166 52.0209 12.2531V12.2567Z" fill="#151515" fill-opacity="0.2"/>
</svg>
