<svg width="72" height="78" viewBox="0 0 72 78" fill="none" xmlns="http://www.w3.org/2000/svg">
<path d="M44.0982 16.7412C43.8926 16.0759 43.1726 14.8421 43.1698 14.208C43.1638 12.7859 45.1904 10.6926 42.6917 9.70629C40.209 8.72628 40.5124 11.4871 39.5782 12.3807C38.9748 12.9568 35.9149 14.405 34.8784 15.086C28.2264 19.4593 22.7928 25.9032 19.5381 33.2251C19.3175 33.7195 18.339 35.7898 18.7316 36.0663C18.8819 36.173 21.5727 36.0904 22.1191 36.139C24.6711 36.3598 27.2079 36.9085 29.6339 37.737L16.406 71.1084C16.1653 71.7157 17.165 72.7818 17.7911 72.9808C18.5666 73.2267 19.8766 72.6931 20.1587 71.9814L33.1761 39.1411C35.4958 40.1446 37.727 41.5677 39.6856 43.1512C42.1536 45.1456 41.9808 46.8429 43.4443 42.7011C46.4497 34.1988 46.7408 25.3007 44.0975 16.743L44.0982 16.7412Z" fill="#151515" fill-opacity="0.2"/>
<path d="M17.2002 31.8848C21.1946 23.7827 26 17.8846 33.493 12.8942C33.9303 12.6025 36.4545 11.2288 36.5145 11.0621C36.6161 10.7746 36.0934 10.6043 35.858 10.5417C32.9957 9.76968 27.7414 9.93422 24.7716 10.3692C16.0588 11.6436 7.33391 17.043 2.58121 24.5455C-0.132318 28.8268 2.35926 27.6491 5.50973 28.2629C9.67437 29.0738 13.0294 31.2292 15.464 34.6934C16.2455 35.1569 16.917 32.465 17.2038 31.8862L17.2002 31.8848Z" fill="#151515" fill-opacity="0.2"/>
<path d="M61.8586 47.8023C64.0388 34.6915 57.6769 21.5092 46.3647 14.6633C46.1795 14.9238 46.2603 15.0972 46.2895 15.3546C46.4349 16.6577 47.4682 19.04 47.7951 20.5729C49.3634 27.9546 48.4317 35.7958 46.2077 42.9731C45.9738 43.7285 44.7841 45.8975 45.2219 46.4889C45.3892 46.713 45.5188 46.6189 45.7257 46.619C46.7874 46.624 48.1274 46.1903 49.3752 46.2219C51.5907 46.2786 53.8229 46.9238 55.7987 47.9262C56.9812 48.526 59.4437 50.8029 60.3446 50.8876C61.5605 51.0049 61.707 48.7174 61.8586 47.8023Z" fill="#151515" fill-opacity="0.2"/>
</svg>
